<?xml version="1.0" encoding="UTF-8" standalone="no"?>
<svg
   xmlns:dc="http://purl.org/dc/elements/1.1/"
   xmlns:cc="http://creativecommons.org/ns#"
   xmlns:rdf="http://www.w3.org/1999/02/22-rdf-syntax-ns#"
   xmlns:svg="http://www.w3.org/2000/svg"
   xmlns="http://www.w3.org/2000/svg"
   xmlns:sodipodi="http://sodipodi.sourceforge.net/DTD/sodipodi-0.dtd"
   xmlns:inkscape="http://www.inkscape.org/namespaces/inkscape"
   version="1.1"
   viewBox="0 0 22 22"
   id="svg7"
   sodipodi:docname="update-none.svg"
   inkscape:version="1.0.2 (e86c870879, 2021-01-15)">
  <metadata
     id="metadata11">
    <rdf:RDF>
      <cc:Work
         rdf:about="">
        <dc:format>image/svg+xml</dc:format>
        <dc:type
           rdf:resource="http://purl.org/dc/dcmitype/StillImage" />
      </cc:Work>
    </rdf:RDF>
  </metadata>
  <sodipodi:namedview
     pagecolor="#ffffff"
     bordercolor="#666666"
     borderopacity="1"
     objecttolerance="10"
     gridtolerance="10"
     guidetolerance="10"
     inkscape:pageopacity="0"
     inkscape:pageshadow="2"
     inkscape:window-width="1360"
     inkscape:window-height="694"
     id="namedview9"
     showgrid="false"
     inkscape:zoom="24.090909"
     inkscape:cx="11"
     inkscape:cy="8.9340198"
     inkscape:window-x="0"
     inkscape:window-y="0"
     inkscape:window-maximized="1"
     inkscape:current-layer="svg7" />
  <defs
     id="defs3">
    <style
       type="text/css"
       id="current-color-scheme">.ColorScheme-Text {
        color:#eff0f1;
      }</style>
  </defs>
  <path
     class="ColorScheme-Text"
     fill="currentColor"
     d="m 10.999999,16.001052 -4,-4 h 2 V 7.0010528 h 4 v 4.9999992 h 2 z m -5.481971,0.494592 2.480469,-0.298829 -0.5,0.867188 c 2.9696,1.7145 6.736409,1.027347 8.912108,-1.623047 2.1757,-2.650394 2.113716,-6.4760702 -0.146484,-9.0546872 l 0.751953,-0.658203 c 2.5783,2.941475 2.649769,7.3262722 0.167969,10.3496082 -2.4818,3.023285 -6.798046,3.807312 -10.185546,1.851562 l -0.5,0.865235 z M 3.00045,11.128455 C 2.97049,9.2866808 3.574003,7.4350458 4.814903,5.9233778 c 2.4819,-3.023284 6.796094,-3.807312 10.183594,-1.851562 l 0.5,-0.865235 0.982422,2.298828 -2.482422,0.298829 0.5,-0.865235 c -2.9696,-1.7145 -6.734457,-1.029299 -8.910157,1.621094 -2.1757,2.650393 -2.113715,6.4760702 0.146485,9.0546872 L 4.982872,16.272987 C 3.693722,14.802249 3.030412,12.970232 3.00045,11.128455 Z"
     id="path5" />
</svg>
